<?xml version="1.0" encoding="UTF-8"?>
<svg width="683px" height="155px" viewBox="0 0 683 155" version="1.1" xmlns="http://www.w3.org/2000/svg" xmlns:xlink="http://www.w3.org/1999/xlink">
    <title>snippets-guru-logo</title>
    <g id="snippets-guru-logo" stroke="none" stroke-width="1" fill="none" fill-rule="evenodd">
        <g id="Logo">
            <path d="M152.605969,96.0629642 L157.667958,87.883417 C159.532138,89.3418758 161.326737,90.5509758 163.054655,91.5078176 C164.779674,92.4646593 166.522088,93.1750418 168.276099,93.6331661 C170.033009,94.0912903 171.813113,94.3203524 173.622208,94.3203524 C175.944461,94.3203524 177.962298,93.9637114 179.67572,93.2475298 C181.392041,92.5313483 182.719871,91.5397123 183.665007,90.2726218 C184.610144,89.0026319 185.082712,87.5180774 185.082712,85.8160589 C185.082712,83.9023754 184.508672,82.3018401 183.360592,81.020252 C182.212512,79.7357645 180.707832,78.6281477 178.846551,77.6974016 C176.982371,76.7666555 174.984828,75.8533066 172.851023,74.9631538 C170.908565,74.1512881 168.945812,73.2785324 166.959866,72.3303892 C164.979718,71.3851455 163.176421,70.2601316 161.555773,68.9495483 C159.935125,67.6389651 158.633388,66.0529274 157.647663,64.1914353 C156.661938,62.3270436 156.169076,60.0741162 156.169076,57.4297535 C156.169076,53.9996208 157.033035,51.0102152 158.760953,48.4586372 C160.488871,45.9070592 162.877805,43.9353853 165.930653,42.546515 C168.977703,41.1547452 172.462532,40.4588603 176.37644,40.4588603 C179.127773,40.4588603 181.957384,40.8155013 184.859474,41.5316828 C187.761565,42.2478644 190.628865,43.332285 193.464274,44.7907438 L189.211161,53.4197167 C187.294795,52.2831047 185.259563,51.4016505 183.099665,50.7666555 C180.936868,50.1316605 178.872644,49.8156128 176.904093,49.8156128 C174.958735,49.8156128 173.251112,50.1171629 171.778322,50.7260622 C170.308432,51.332062 169.160352,52.1961191 168.339881,53.3182335 C167.516511,54.4403479 167.101927,55.7422326 167.101927,57.2238876 C167.101927,58.980997 167.649874,60.4655515 168.742869,61.6804505 C169.835864,62.8953496 171.273863,63.9681722 173.056866,64.8989183 C174.836969,65.8296643 176.738839,66.7430133 178.762475,67.6331661 C180.791909,68.5233188 182.821343,69.4743615 184.859474,70.4891937 C186.897606,71.5011264 188.761786,72.6957288 190.449115,74.073001 C192.133546,75.4502732 193.484569,77.0972008 194.496387,79.0137839 C195.508204,80.9303669 196.015563,83.2383852 196.015563,85.9378387 C196.015563,89.449158 195.102318,92.5313483 193.281625,95.1902085 C191.458034,97.8519683 188.903846,99.9164269 185.610365,101.389383 C182.313984,102.85944 178.466757,103.595918 174.065784,103.595918 C170.125783,103.595918 166.345238,102.960923 162.729946,101.690933 C159.111755,100.423843 155.737096,98.5449537 152.605969,96.0629642 M242.665003,102.380149 L232.700482,102.380149 L232.700482,80.996186 C232.700482,77.6240437 231.839422,74.9564849 230.111504,72.9993086 C228.383586,71.0421323 226.049737,70.0620943 223.107058,70.0620943 C220.083201,70.0620943 217.653678,71.0972232 215.815591,73.1616817 C213.980403,75.2261403 213.064258,78.0009814 213.064258,81.4833055 L213.064258,102.380149 L203.102636,102.380149 L203.102636,61.8825471 L211.321844,61.8825471 L211.646554,68.4006691 C213.104847,66.0288614 215.027011,64.210862 217.415945,62.9553697 C219.804878,61.6998773 222.605497,61.0735809 225.817802,61.0735809 C231.056641,61.0735809 235.173492,62.6683172 238.168357,65.8490911 C241.163222,69.0385636 242.665003,73.4400357 242.665003,79.0535073 L242.665003,102.380149 Z M251.046566,102.37928 L261.008187,102.37928 L261.008187,61.8816773 L251.046566,61.8816773 L251.046566,102.37928 Z M256.027377,51.150552 C254.624168,51.150552 253.444197,50.6576335 252.487464,49.6746961 C251.527831,48.6888592 251.049465,47.4942567 251.049465,46.0879893 C251.049465,44.7136166 251.527831,43.5306122 252.487464,42.5476748 C253.444197,41.5618378 254.624168,41.0689194 256.027377,41.0689194 C257.456678,41.0689194 258.662742,41.5618378 259.631072,42.5476748 C260.602301,43.5306122 261.089365,44.7136166 261.089365,46.0879893 C261.089365,47.4942567 260.602301,48.6888592 259.631072,49.6746961 C258.662742,50.6576335 257.456678,51.150552 256.027377,51.150552 L256.027377,51.150552 Z M292.027507,94.1997324 C294.294674,94.1997324 296.315411,93.6778187 298.083918,92.6397903 C299.849525,91.601762 301.226641,90.1693989 302.212366,88.3456005 C303.198091,86.5276012 303.690954,84.4399465 303.690954,82.0913349 C303.690954,79.7427233 303.192293,77.6579681 302.192072,75.8341697 C301.191851,74.0103714 299.817634,72.5809078 298.063623,71.5428794 C296.309612,70.5019516 294.294674,69.9800379 292.027507,69.9800379 C289.896601,69.9800379 287.965739,70.4613583 286.237821,71.4210996 C284.509903,72.3808409 283.12119,73.6885246 282.065885,75.3470503 C281.013478,77.0084755 280.393051,78.9076614 280.204604,81.038809 L280.204604,83.2656407 C280.393051,85.3996877 281.00768,87.2872756 282.04849,88.9371027 C283.0864,90.5811308 284.472214,91.8714174 286.197233,92.805063 C287.925151,93.7329096 289.870508,94.1997324 292.027507,94.1997324 L292.027507,94.1997324 Z M280.204604,122.629531 L270.242982,122.629531 L270.242982,61.8816773 L279.03333,61.8816773 L279.517495,67.5531393 C281.297599,65.5263745 283.443001,63.9403368 285.953701,62.7950262 C288.4644,61.6439166 291.207035,61.0727111 294.175807,61.0727111 C297.953454,61.0727111 301.33681,61.991859 304.317179,63.824356 C307.303346,65.6626519 309.648792,68.1649381 311.365114,71.3370135 C313.078536,74.5119884 313.936696,78.1073938 313.936696,82.1319282 C313.936696,86.1564626 313.078536,89.751868 311.365114,92.9239433 C309.648792,96.0960187 307.303346,98.6012044 304.317179,100.433701 C301.33681,102.271997 297.953454,103.191145 294.175807,103.191145 C291.392584,103.191145 288.818102,102.692428 286.440765,101.692093 C284.066327,100.691759 281.987607,99.2883908 280.204604,97.47909 L280.204604,122.629531 Z M342.078278,94.1997324 C344.345446,94.1997324 346.366182,93.6778187 348.134689,92.6397903 C349.900297,91.601762 351.277413,90.1693989 352.263138,88.3456005 C353.248863,86.5276012 353.741725,84.4399465 353.741725,82.0913349 C353.741725,79.7427233 353.243064,77.6579681 352.242843,75.8341697 C351.242622,74.0103714 349.868406,72.5809078 348.114395,71.5428794 C346.360384,70.5019516 344.345446,69.9800379 342.078278,69.9800379 C339.947372,69.9800379 338.016511,70.4613583 336.288593,71.4210996 C334.560675,72.3808409 333.171962,73.6885246 332.116656,75.3470503 C331.06425,77.0084755 330.443823,78.9076614 330.255375,81.038809 L330.255375,83.2656407 C330.443823,85.3996877 331.058451,87.2872756 332.099261,88.9371027 C333.137172,90.5811308 334.522985,91.8714174 336.248004,92.805063 C337.975922,93.7329096 339.92128,94.1997324 342.078278,94.1997324 L342.078278,94.1997324 Z M330.255375,122.629531 L320.293754,122.629531 L320.293754,61.8816773 L329.084102,61.8816773 L329.568267,67.5531393 C331.348371,65.5263745 333.493772,63.9403368 336.004472,62.7950262 C338.515172,61.6439166 341.257807,61.0727111 344.226579,61.0727111 C348.004226,61.0727111 351.387582,61.991859 354.367951,63.824356 C357.354118,65.6626519 359.699564,68.1649381 361.415885,71.3370135 C363.129307,74.5119884 363.987468,78.1073938 363.987468,82.1319282 C363.987468,86.1564626 363.129307,89.751868 361.415885,92.9239433 C359.699564,96.0960187 357.354118,98.6012044 354.367951,100.433701 C351.387582,102.271997 348.004226,103.191145 344.226579,103.191145 C341.443355,103.191145 338.868873,102.692428 336.491536,101.692093 C334.117098,100.691759 332.038378,99.2883908 330.255375,97.47909 L330.255375,122.629531 Z M377.916054,79.70213 L400.26882,79.70213 C400.054279,77.6782647 399.439651,75.9066577 398.424934,74.3960076 C397.416015,72.8824579 396.102682,71.7023531 394.499429,70.8527936 C392.893277,70.0003346 391.08998,69.5770046 389.092437,69.5770046 C387.068801,69.5770046 385.259705,70.0090331 383.66515,70.8730902 C382.076393,71.7371473 380.777555,72.9317497 379.780234,74.4568975 C378.780013,75.9820453 378.159586,77.7304561 377.916054,79.70213 L377.916054,79.70213 Z M407.073222,97.6820564 C402.02283,101.355749 396.50277,103.191145 390.510141,103.191145 C386.164253,103.191145 382.261942,102.243002 378.809004,100.355414 C375.350269,98.4678265 372.619231,95.8814542 370.607192,92.5991971 C368.595153,89.3198394 367.589134,85.6287499 367.589134,81.5230289 C367.589134,77.6086763 368.502379,74.1118546 370.32597,71.0354634 C372.146663,67.9561726 374.642866,65.5263745 377.817481,63.7460689 C380.989196,61.9628638 384.572597,61.0727111 388.567683,61.0727111 C392.722224,61.0727111 396.375206,62.052749 399.520828,64.0099253 C402.663552,65.9671016 405.116268,68.6781532 406.867379,72.1488792 C408.624289,75.6196052 409.502744,79.6470391 409.502744,84.23698 L409.502744,85.5330657 L378.32194,85.5330657 C378.809004,87.3713617 379.667165,88.9892941 380.893523,90.3955615 C382.119881,91.7960299 383.653553,92.8920486 385.488742,93.6720196 C387.32393,94.4577897 389.391053,94.8492249 391.684314,94.8492249 C396.004109,94.8492249 399.999195,93.4429575 403.67247,90.6362217 L407.073222,97.6820564 Z M441.330358,101.326754 C438.361586,102.570648 435.485588,103.191145 432.705264,103.191145 C429.872754,103.191145 427.379449,102.585146 425.234047,101.367347 C423.088646,100.152448 421.415812,98.4591279 420.212648,96.2873871 C419.012382,94.1127467 418.41225,91.5814654 418.41225,88.693543 L418.41225,70.7919036 L411.323727,70.7919036 L411.323727,61.8816773 L418.937003,61.8816773 L418.937003,51.7565518 L428.370972,51.7565518 L428.370972,61.8816773 L439.912654,61.8816773 L439.912654,70.7919036 L428.370972,70.7919036 L428.370972,86.8697446 C428.370972,89.1661648 429.000097,90.9754656 430.255447,92.2976469 C431.510797,93.6198283 433.082158,94.2809189 434.975331,94.2809189 C436.648164,94.2809189 438.306502,93.7706033 439.953242,92.7412736 L441.330358,101.326754 Z M444.288983,98.8975354 L446.556151,90.2308687 C447.446203,91.1210215 448.553694,91.9328873 449.875725,92.6606669 C451.200656,93.391346 452.609663,93.9654511 454.108545,94.3800825 C455.604527,94.800513 457.068619,95.0092785 458.50082,95.0092785 C460.417185,95.0092785 461.956656,94.6091446 463.116332,93.814676 C464.278908,93.0202074 464.858746,91.970581 464.858746,90.6773949 C464.858746,89.6509646 464.507944,88.7956061 463.803441,88.1026207 C463.101836,87.4154344 462.185692,86.8094346 461.052108,86.2817219 C459.918524,85.7569087 458.67767,85.234995 457.326647,84.7217799 C455.546544,84.0751868 453.737448,83.2981153 451.90226,82.3963644 C450.064172,81.4917141 448.533399,80.2884131 447.304142,78.789361 C446.074885,77.2932084 445.463156,75.3012379 445.463156,72.8163488 C445.463156,70.4155459 446.074885,68.3365897 447.304142,66.5794803 C448.533399,64.8252704 450.255519,63.4682949 452.467602,62.5114531 C454.682584,61.5517118 457.259966,61.073291 460.202645,61.073291 C464.844251,61.073291 469.477158,62.2330991 474.089772,64.555615 L471.216673,72.7380618 C470.349815,72.0885692 469.300308,71.4941675 468.056555,70.9548567 C466.815701,70.4155459 465.545855,69.9806178 464.252815,69.658771 C462.953978,69.3340248 461.779805,69.1716516 460.727399,69.1716516 C459.190827,69.1716516 457.96157,69.5108955 457.042526,70.1864838 C456.126382,70.8591725 455.66831,71.7522248 455.66831,72.8598416 C455.66831,73.613717 455.923438,74.2951043 456.433696,74.9040036 C456.946853,75.5129029 457.74703,76.098606 458.825529,76.6640125 C459.906927,77.229419 461.29564,77.8673135 462.994566,78.5660979 C464.832654,79.2677819 466.67364,80.0883462 468.523324,81.0190922 C470.373009,81.9498383 471.924076,83.179235 473.179426,84.7014832 C474.434776,86.2295305 475.061001,88.2475967 475.061001,90.7556819 C475.061001,93.2434705 474.394187,95.4152113 473.05766,97.2767035 C471.721133,99.1410951 469.859852,100.590855 467.470918,101.628884 C465.081984,102.669812 462.292962,103.188826 459.106751,103.188826 C453.815726,103.188826 448.878403,101.759362 444.288983,98.8975354 M543.538164,55.7671685 C541.621798,53.8505855 539.334336,52.3805286 536.675778,51.3540984 C534.01432,50.3276681 531.187608,49.814453 528.192744,49.814453 C525.139895,49.814453 522.353772,50.3421657 519.828576,51.3946916 C517.30628,52.4443181 515.126088,53.9520687 513.288,55.909245 C511.455711,57.8693208 510.035107,60.1889372 509.040685,62.8738932 C508.040464,65.5617486 507.538904,68.5366566 507.538904,71.8044162 C507.538904,75.0982714 508.046262,78.1166722 509.05808,80.8538196 C510.069898,83.5967659 511.502098,85.9656741 513.351782,87.9634437 C515.201467,89.9612133 517.393255,91.5008587 519.930048,92.5794803 C522.46684,93.6581019 525.261661,94.2003123 528.31161,94.2003123 C530.958572,94.2003123 533.385195,93.7885804 535.603077,92.9651165 C537.812261,92.1416527 539.763417,90.9557489 541.450746,89.4016059 C543.138075,87.8474629 544.523889,85.9801717 545.602388,83.7910338 C546.683787,81.6047954 547.396988,79.1749972 547.74779,76.5016393 L528.555142,76.5016393 L528.555142,68.2409055 L557.184658,68.2409055 L557.468779,72.2886361 C557.468779,76.9075722 556.761376,81.1263745 555.340772,84.9450429 C553.923068,88.7666109 551.90523,92.0720642 549.287261,94.867202 C546.669291,97.6623397 543.564257,99.8137839 539.975058,101.327334 C536.382959,102.837984 532.416865,103.594759 528.070977,103.594759 C523.588827,103.594759 519.437185,102.80029 515.61895,101.205554 C511.797816,99.613717 508.463746,97.3926843 505.61674,94.5453552 C502.766834,91.6980261 500.554751,88.354879 498.977591,84.5217129 C497.397532,80.6885469 496.608952,76.5161369 496.608952,72.0073826 C496.608952,67.5276235 497.397532,63.3610126 498.977591,59.5133489 C500.554751,55.6656853 502.755238,52.3138396 505.576151,49.4491134 C508.397064,46.5901862 511.716638,44.366254 515.537773,42.7860154 C519.356008,41.2086763 523.496053,40.4200067 527.949211,40.4200067 C532.18493,40.4200067 536.240899,41.1477863 540.114219,42.6062451 C543.987539,44.0647039 547.452072,46.1581577 550.502022,48.8837069 L543.538164,55.7671685 Z M602.982896,102.380149 L594.763688,102.380149 L594.441878,95.8591279 C592.983584,98.2338352 591.067219,100.051835 588.689882,101.307327 C586.315444,102.55992 583.506127,103.189116 580.267731,103.189116 C575.057884,103.189116 570.94683,101.59148 567.937469,98.3904093 C564.928109,95.1922382 563.420529,90.7849671 563.420529,85.168596 L563.420529,61.8825471 L573.382151,61.8825471 L573.382151,83.263611 C573.382151,86.6386528 574.240312,89.3062117 575.956633,91.263388 C577.670055,93.2205643 579.995207,94.2006022 582.940785,94.2006022 C585.990734,94.2006022 588.431854,93.1596744 590.267042,91.0836177 C592.105129,89.0046615 593.021274,86.2356195 593.021274,82.7793911 L593.021274,61.8825471 L602.982896,61.8825471 L602.982896,102.380149 Z M622.059865,102.380149 L612.095344,102.380149 L612.095344,61.8825471 L620.763927,61.8825471 L621.129225,69.2531281 C622.529534,66.6638564 624.425606,64.6486896 626.817439,63.2192261 C629.206372,61.7897625 631.951907,61.0735809 635.056941,61.0735809 C635.868714,61.0735809 636.697883,61.1257723 637.547346,61.2359541 C638.396809,61.3432363 639.240474,61.5027099 640.07834,61.7230735 L638.863579,70.7115869 C637.190746,70.2244675 635.570098,69.9809078 634.004534,69.9809078 C631.630096,69.9809078 629.542678,70.5376157 627.748079,71.642333 C625.953479,72.7499498 624.55317,74.2837961 623.558747,76.2380729 C622.558526,78.1952492 622.059865,80.4713728 622.059865,83.0635441 L622.059865,102.380149 Z M682.99942,102.380149 L674.780212,102.380149 L674.458402,95.8591279 C673.000109,98.2338352 671.083743,100.051835 668.706406,101.307327 C666.331968,102.55992 663.522652,103.189116 660.284255,103.189116 C655.074408,103.189116 650.963355,101.59148 647.953994,98.3904093 C644.944633,95.1922382 643.437054,90.7849671 643.437054,85.168596 L643.437054,61.8825471 L653.398675,61.8825471 L653.398675,83.263611 C653.398675,86.6386528 654.256836,89.3062117 655.973157,91.263388 C657.68658,93.2205643 660.011731,94.2006022 662.95731,94.2006022 C666.007259,94.2006022 668.448378,93.1596744 670.283566,91.0836177 C672.121654,89.0046615 673.037798,86.2356195 673.037798,82.7793911 L673.037798,61.8825471 L682.99942,61.8825471 L682.99942,102.380149 Z" id="Combined-Shape" fill="#282267"></path>
            <path d="M57,47 L36,47 L36,57 L57,57 L57,47 Z M71,113 L71,155 L62,155 L62,113 L71,113 Z M82.8331672,95 C85.2701157,95.0158668 87.6044644,96.025482 89.3134322,97.8004702 C90.8436382,99.3827129 91.7761982,101.459254 91.9645423,103.665408 L92,104.498079 L92,144 L83.2598801,144 L83.2598801,104.498079 C83.2598801,104.365644 83.210449,104.24243 83.112687,104.141328 C83.0545122,104.080906 82.9810476,104.037379 82.9094751,104.01486 L82.8056831,103.997351 L51.2265323,103.997351 C51.0981032,103.997351 50.977062,104.049 50.8788618,104.150075 C50.8198263,104.21058 50.7778417,104.286126 50.7564115,104.36907 L50.7401199,104.498079 L50.7401199,144 L42,144 L42,104.498079 C42,101.974652 42.9747021,99.5548378 44.7054926,97.7809727 C46.2431849,96.1980245 48.2660044,95.2318947 50.4153129,95.0367417 L51.2265323,95 L82.8331672,95 Z M52.2265323,27 L51.4153129,26.9632583 C49.2660044,26.7681053 47.2431849,25.8019755 45.7054926,24.2190273 C43.9747021,22.4451622 43,20.0253476 43,17.5019209 L43,17.5019209 L43,11 L51.7401199,11 L51.7401199,17.5019209 L51.7564115,17.6309299 C51.7778417,17.7138738 51.8198263,17.7894196 51.8788618,17.8499248 C51.977062,17.9509997 52.0981032,18.0026489 52.2265323,18.0026489 L52.2265323,18.0026489 L63,18.002 L63,0 L72,0 L72,18.002 L83.8056831,18.0026489 L83.9094751,17.9851403 C83.9810476,17.9626211 84.0545122,17.9190938 84.112687,17.8586722 C84.210449,17.7575698 84.2598801,17.6343555 84.2598801,17.5019209 L84.2598801,17.5019209 L84.2598801,11 L93,11 L93,17.5019209 L92.9645423,18.334592 C92.7761982,20.5407461 91.8436382,22.6172871 90.3134322,24.1995298 C88.6044644,25.974518 86.2701157,26.9841332 83.8331672,27 L83.8331672,27 L52.2265323,27 Z M75.87089,46 L80.5727041,55.9081964 L94,85 L65.8630952,85 L65.8630952,75.0918036 L78.4272959,75.0918036 L65,46 L75.87089,46 Z M98,47 L98,57 L87.20347,57 L83,47 L98,47 Z" id="Combined-Shape" fill="#282267" fill-rule="nonzero"></path>
            <path d="M127.246698,67.3037295 C126.035502,66.1660136 125.100327,64.8251342 124.498849,63.3501669 C123.897371,61.8711363 123.641948,60.3108402 123.753181,58.7424176 C123.753181,58.7424176 123.753181,45.5936729 123.753181,44.3340589 C123.753181,39.0843129 124.070399,33.1234944 121.252514,28.8448701 C119.340967,25.5901901 116.473646,22.8677986 112.95541,20.9580612 C109.441294,19.0523872 105.403974,18.0243796 101.28838,18 L101,18.1747207 L101,26.727906 C104.365806,26.8619939 107.546226,28.1459875 109.873864,30.3320273 C112.217981,32.4327384 113.53217,35.2729647 113.52805,38.2350892 C113.52805,41.8839065 113.754635,58.7749238 113.754635,58.7749238 C113.771114,61.7979974 114.628014,64.7682484 116.251181,67.4215644 C117.874349,70.0789435 120.206107,72.3299956 123.04871,73.9796836 C120.206107,75.6456247 117.874349,77.9007401 116.251181,80.5662458 C114.628014,83.2195617 113.771114,86.1979393 113.754635,89.2169496 C113.754635,89.2169496 113.52805,106.107967 113.52805,109.764911 C113.507452,112.718909 112.197383,115.555072 109.873864,117.672036 C107.546226,119.845886 104.365806,121.138006 101,121.268031 L101,129.825279 L101.28838,130 C105.403974,129.967494 109.437174,128.939486 112.95129,127.025686 C116.465407,125.120012 119.336847,122.393557 121.252514,119.147003 C124.070399,114.872442 123.91385,108.907561 123.753181,103.657815 C123.753181,102.406327 123.753181,89.2453925 123.753181,89.2453925 C123.658427,87.6850965 123.917969,86.132927 124.519447,84.6498331 C125.120926,83.1829923 126.047861,81.8380496 127.246698,80.688144 C129.248879,78.7255841 132.025566,77.5187926 135,77.3278189 L135,70.6721811 C132.029686,70.4730808 129.252999,69.2744159 127.246698,67.3037295 L127.246698,67.3037295 Z M7.74897119,66.8639533 C8.95884774,65.7436876 9.89300412,64.4075161 10.4897119,62.9491339 C11.090535,61.4866779 11.345679,59.9386744 11.2386831,58.3825235 C11.2386831,58.3825235 11.2386831,45.3467043 11.2386831,44.1001541 C11.0781893,38.8980476 10.9176955,32.9830446 13.7325103,28.7423297 C15.6460905,25.5281856 18.5102881,22.8314005 22.0246914,20.9330593 C25.5349794,19.0428655 29.563786,18.0285159 33.6790123,18 L34,18.1670214 L34,26.652525 C30.6213992,26.7828831 27.4320988,28.0538755 25.0987654,30.2210804 C22.7572016,32.3027378 21.4485597,35.1135863 21.4485597,38.0507193 C21.4485597,41.6763065 21.255144,58.4110393 21.255144,58.4110393 C21.2263374,61.4092777 20.3580247,64.3464107 18.7325103,66.9820904 C17.1069959,69.6096227 14.7736626,71.8501541 11.9423868,73.4877789 C14.7777778,75.1335511 17.1111111,77.3740825 18.7366255,80.0138359 C20.3621399,82.6454419 21.2263374,85.5907223 21.255144,88.5889607 C21.255144,88.5889607 21.4485597,105.331841 21.4485597,108.953354 C21.4691358,111.878266 22.7777778,114.693188 25.0987654,116.787067 C27.4320988,118.946124 30.6213992,120.229338 34,120.347475 L34,128.832979 L33.6790123,129 C29.563786,128.96741 25.5390947,127.948987 22.0288066,126.058793 C18.5185185,124.172673 15.6502058,121.471814 13.7325103,118.253597 C10.9176955,114.012882 11.0781893,108.106026 11.2386831,102.895772 C11.2386831,101.653296 11.2386831,88.6174765 11.2386831,88.6174765 C11.3292181,87.069473 11.0699588,85.5173958 10.4691358,84.0590135 C9.87242798,82.6047049 8.94650206,81.2685335 7.74897119,80.1360467 C5.74485597,78.1806738 2.97119342,76.9870816 0,76.7996917 L0,70.2084557 C2.97119342,70.0088447 5.74074074,68.8152525 7.74897119,66.8639533 L7.74897119,66.8639533 Z" id="Combined-Shape" fill="#00C0F2" fill-rule="nonzero"></path>
        </g>
    </g>
</svg>