<?xml version="1.0" encoding="UTF-8"?>
<svg width="135px" height="155px" viewBox="0 0 135 155" version="1.1" xmlns="http://www.w3.org/2000/svg" xmlns:xlink="http://www.w3.org/1999/xlink">
    <title>snippets-guru-icon</title>
    <g id="snippets-guru-icon" stroke="none" stroke-width="1" fill="none" fill-rule="evenodd">
        <g id="Logo" fill-rule="nonzero">
            <path d="M57,47 L36,47 L36,57 L57,57 L57,47 Z M71,113 L71,155 L62,155 L62,113 L71,113 Z M82.8331672,95 C85.2701157,95.0158668 87.6044644,96.025482 89.3134322,97.8004702 C90.8436382,99.3827129 91.7761982,101.459254 91.9645423,103.665408 L92,104.498079 L92,144 L83.2598801,144 L83.2598801,104.498079 C83.2598801,104.365644 83.210449,104.24243 83.112687,104.141328 C83.0545122,104.080906 82.9810476,104.037379 82.9094751,104.01486 L82.8056831,103.997351 L51.2265323,103.997351 C51.0981032,103.997351 50.977062,104.049 50.8788618,104.150075 C50.8198263,104.21058 50.7778417,104.286126 50.7564115,104.36907 L50.7401199,104.498079 L50.7401199,144 L42,144 L42,104.498079 C42,101.974652 42.9747021,99.5548378 44.7054926,97.7809727 C46.2431849,96.1980245 48.2660044,95.2318947 50.4153129,95.0367417 L51.2265323,95 L82.8331672,95 Z M52.2265323,27 L51.4153129,26.9632583 C49.2660044,26.7681053 47.2431849,25.8019755 45.7054926,24.2190273 C43.9747021,22.4451622 43,20.0253476 43,17.5019209 L43,17.5019209 L43,11 L51.7401199,11 L51.7401199,17.5019209 L51.7564115,17.6309299 C51.7778417,17.7138738 51.8198263,17.7894196 51.8788618,17.8499248 C51.977062,17.9509997 52.0981032,18.0026489 52.2265323,18.0026489 L52.2265323,18.0026489 L63,18.002 L63,0 L72,0 L72,18.002 L83.8056831,18.0026489 L83.9094751,17.9851403 C83.9810476,17.9626211 84.0545122,17.9190938 84.112687,17.8586722 C84.210449,17.7575698 84.2598801,17.6343555 84.2598801,17.5019209 L84.2598801,17.5019209 L84.2598801,11 L93,11 L93,17.5019209 L92.9645423,18.334592 C92.7761982,20.5407461 91.8436382,22.6172871 90.3134322,24.1995298 C88.6044644,25.974518 86.2701157,26.9841332 83.8331672,27 L83.8331672,27 L52.2265323,27 Z M75.87089,46 L80.5727041,55.9081964 L94,85 L65.8630952,85 L65.8630952,75.0918036 L78.4272959,75.0918036 L65,46 L75.87089,46 Z M98,47 L98,57 L87.20347,57 L83,47 L98,47 Z" id="Combined-Shape" fill="#282267"></path>
            <path d="M127.246698,67.3037295 C126.035502,66.1660136 125.100327,64.8251342 124.498849,63.3501669 C123.897371,61.8711363 123.641948,60.3108402 123.753181,58.7424176 C123.753181,58.7424176 123.753181,45.5936729 123.753181,44.3340589 C123.753181,39.0843129 124.070399,33.1234944 121.252514,28.8448701 C119.340967,25.5901901 116.473646,22.8677986 112.95541,20.9580612 C109.441294,19.0523872 105.403974,18.0243796 101.28838,18 L101,18.1747207 L101,26.727906 C104.365806,26.8619939 107.546226,28.1459875 109.873864,30.3320273 C112.217981,32.4327384 113.53217,35.2729647 113.52805,38.2350892 C113.52805,41.8839065 113.754635,58.7749238 113.754635,58.7749238 C113.771114,61.7979974 114.628014,64.7682484 116.251181,67.4215644 C117.874349,70.0789435 120.206107,72.3299956 123.04871,73.9796836 C120.206107,75.6456247 117.874349,77.9007401 116.251181,80.5662458 C114.628014,83.2195617 113.771114,86.1979393 113.754635,89.2169496 C113.754635,89.2169496 113.52805,106.107967 113.52805,109.764911 C113.507452,112.718909 112.197383,115.555072 109.873864,117.672036 C107.546226,119.845886 104.365806,121.138006 101,121.268031 L101,129.825279 L101.28838,130 C105.403974,129.967494 109.437174,128.939486 112.95129,127.025686 C116.465407,125.120012 119.336847,122.393557 121.252514,119.147003 C124.070399,114.872442 123.91385,108.907561 123.753181,103.657815 C123.753181,102.406327 123.753181,89.2453925 123.753181,89.2453925 C123.658427,87.6850965 123.917969,86.132927 124.519447,84.6498331 C125.120926,83.1829923 126.047861,81.8380496 127.246698,80.688144 C129.248879,78.7255841 132.025566,77.5187926 135,77.3278189 L135,70.6721811 C132.029686,70.4730808 129.252999,69.2744159 127.246698,67.3037295 L127.246698,67.3037295 Z M7.74897119,66.8639533 C8.95884774,65.7436876 9.89300412,64.4075161 10.4897119,62.9491339 C11.090535,61.4866779 11.345679,59.9386744 11.2386831,58.3825235 C11.2386831,58.3825235 11.2386831,45.3467043 11.2386831,44.1001541 C11.0781893,38.8980476 10.9176955,32.9830446 13.7325103,28.7423297 C15.6460905,25.5281856 18.5102881,22.8314005 22.0246914,20.9330593 C25.5349794,19.0428655 29.563786,18.0285159 33.6790123,18 L34,18.1670214 L34,26.652525 C30.6213992,26.7828831 27.4320988,28.0538755 25.0987654,30.2210804 C22.7572016,32.3027378 21.4485597,35.1135863 21.4485597,38.0507193 C21.4485597,41.6763065 21.255144,58.4110393 21.255144,58.4110393 C21.2263374,61.4092777 20.3580247,64.3464107 18.7325103,66.9820904 C17.1069959,69.6096227 14.7736626,71.8501541 11.9423868,73.4877789 C14.7777778,75.1335511 17.1111111,77.3740825 18.7366255,80.0138359 C20.3621399,82.6454419 21.2263374,85.5907223 21.255144,88.5889607 C21.255144,88.5889607 21.4485597,105.331841 21.4485597,108.953354 C21.4691358,111.878266 22.7777778,114.693188 25.0987654,116.787067 C27.4320988,118.946124 30.6213992,120.229338 34,120.347475 L34,128.832979 L33.6790123,129 C29.563786,128.96741 25.5390947,127.948987 22.0288066,126.058793 C18.5185185,124.172673 15.6502058,121.471814 13.7325103,118.253597 C10.9176955,114.012882 11.0781893,108.106026 11.2386831,102.895772 C11.2386831,101.653296 11.2386831,88.6174765 11.2386831,88.6174765 C11.3292181,87.069473 11.0699588,85.5173958 10.4691358,84.0590135 C9.87242798,82.6047049 8.94650206,81.2685335 7.74897119,80.1360467 C5.74485597,78.1806738 2.97119342,76.9870816 0,76.7996917 L0,70.2084557 C2.97119342,70.0088447 5.74074074,68.8152525 7.74897119,66.8639533 L7.74897119,66.8639533 Z" id="Combined-Shape" fill="#00C0F2"></path>
        </g>
    </g>
</svg>