<svg width="16" height="17" viewBox="0 0 16 17" fill="none" xmlns="http://www.w3.org/2000/svg">
<path d="M12 15.8333H2.66671C1.93337 15.8333 1.33337 15.2333 1.33337 14.5V5.16666H2.66671V14.5H12V15.8333ZM10 1.16666H5.33337C4.60004 1.16666 4.00671 1.76666 4.00671 2.5L4.00004 11.8333C4.00004 12.5667 4.59337 13.1667 5.32671 13.1667H12.6667C13.4 13.1667 14 12.5667 14 11.8333V5.16666L10 1.16666ZM11 10.5H7.00004V9.16666H11V10.5ZM11 6.5H9.66671V7.83333H8.33337V6.5H7.00004V5.16666H8.33337V3.83333H9.66671V5.16666H11V6.5Z" fill="black"/>
</svg>
