<svg width="16" height="17" viewBox="0 0 16 17" fill="none" xmlns="http://www.w3.org/2000/svg">
<path d="M7.99992 1.83334C4.31992 1.83334 1.33325 4.82 1.33325 8.5C1.33325 12.18 4.31992 15.1667 7.99992 15.1667C11.6799 15.1667 14.6666 12.18 14.6666 8.5C14.6666 4.82 11.6799 1.83334 7.99992 1.83334ZM7.33325 13.7867C4.69992 13.46 2.66659 11.22 2.66659 8.5C2.66659 8.08667 2.71992 7.69334 2.80659 7.30667L5.99992 10.5V11.1667C5.99992 11.9 6.59992 12.5 7.33325 12.5V13.7867ZM11.9333 12.0933C11.7599 11.5533 11.2666 11.1667 10.6666 11.1667H9.99992V9.16667C9.99992 8.8 9.69992 8.5 9.33325 8.5H5.33325V7.16667H6.66658C7.03325 7.16667 7.33325 6.86667 7.33325 6.5V5.16667H8.66658C9.39992 5.16667 9.99992 4.56667 9.99992 3.83334V3.56C11.9533 4.35334 13.3333 6.26667 13.3333 8.5C13.3333 9.88667 12.7999 11.1467 11.9333 12.0933Z" fill="black"/>
</svg>
