<?xml version="1.0" encoding="UTF-8"?>
<svg width="250px" height="57px" viewBox="0 0 250 57" version="1.1" xmlns="http://www.w3.org/2000/svg" xmlns:xlink="http://www.w3.org/1999/xlink">
    <title>snippets-guru-logo copy</title>
    <defs>
        <linearGradient x1="50%" y1="0%" x2="50%" y2="100%" id="linearGradient-1">
            <stop stop-color="#00C0F2" offset="0%"></stop>
            <stop stop-color="#00C0F2" offset="100%"></stop>
        </linearGradient>
    </defs>
    <g id="snippets-guru-logo-copy" stroke="none" stroke-width="1" fill="none" fill-rule="evenodd">
        <g id="Logo">
            <path d="M55.8587003,35.1621392 L57.7115511,32.1681614 C58.393901,32.7020043 59.0507823,33.1445739 59.683256,33.4948088 C60.3146684,33.8450437 60.9524481,34.1050666 61.5944726,34.2727548 C62.2375582,34.440443 62.8891335,34.5242871 63.5513207,34.5242871 C64.4013399,34.5242871 65.1399333,34.393745 65.767101,34.1315995 C66.3953299,33.869454 66.8813583,33.5064833 67.2273087,33.0426873 C67.5732591,32.5778301 67.7462343,32.0344354 67.7462343,31.4114418 C67.7462343,30.710972 67.5361172,30.1251245 67.115883,29.656022 C66.6956488,29.1858582 66.1448873,28.7804347 65.4635985,28.4397517 C64.7812486,28.0990686 64.0500835,27.7647535 63.2690422,27.4389289 C62.5580399,27.1417599 61.8396092,26.8223032 61.1126889,26.4752523 C60.3878911,26.1292626 59.7278263,25.7174713 59.1346169,25.2377556 C58.5414075,24.7580399 58.0649298,24.177499 57.7041227,23.496133 C57.3433156,22.8137056 57.162912,21.9890616 57.162912,21.0211397 C57.162912,19.7656006 57.4791488,18.6713819 58.1116225,17.7374221 C58.7440962,16.8034624 59.6185229,16.0817662 60.7359638,15.5733949 C61.8512824,15.0639624 63.1268417,14.8092461 64.5594583,14.8092461 C65.5665347,14.8092461 66.6022634,14.9397882 67.664522,15.2019337 C68.7267807,15.4640792 69.776305,15.8610121 70.8141561,16.394855 L69.2573794,19.553337 C68.5559279,19.1373004 67.8109673,18.8146598 67.0203752,18.5822312 C66.2287219,18.3498025 65.4731493,18.2341189 64.7525962,18.2341189 C64.0405327,18.2341189 63.4154874,18.3444959 62.8763991,18.5673727 C62.338372,18.7891881 61.9181378,19.1054609 61.6178189,19.5161909 C61.3164388,19.9269209 61.1646876,20.4034526 61.1646876,20.9457861 C61.1646876,21.5889447 61.3652539,22.1323395 61.7653254,22.5770317 C62.1653968,23.0217239 62.6917508,23.4144115 63.3443872,23.7550945 C63.9959624,24.0957776 64.692108,24.4300927 65.4328238,24.7559173 C66.175662,25.0817419 66.9185002,25.4298542 67.664522,25.8013154 C68.4105439,26.1717154 69.0928938,26.6089783 69.7105107,27.1131043 C70.3270665,27.6172303 70.8215845,28.2200589 71.1919424,28.92159 C71.5623003,29.6231211 71.7480099,30.4679302 71.7480099,31.4560171 C71.7480099,32.7412731 71.4137327,33.869454 70.7473007,34.8426825 C70.0798075,35.8169723 69.1448925,36.5726306 67.9393722,37.1117801 C66.7327907,37.6498683 65.3245817,37.919443 63.7136839,37.919443 C62.2715166,37.919443 60.8877151,37.6870144 59.5644018,37.2221572 C58.2400274,36.7583613 57.0047936,36.0706273 55.8587003,35.1621392 M88.8232076,37.4744324 L85.1758719,37.4744324 L85.1758719,29.647213 C85.1758719,28.4129003 84.8606963,27.4364879 84.2282226,26.7200983 C83.5957489,26.0037087 82.7414849,25.6449833 81.6643695,25.6449833 C80.5575406,25.6449833 79.6682571,26.0238738 78.9954579,26.7795321 C78.3237199,27.5351904 77.9883815,28.5508717 77.9883815,29.8255144 L77.9883815,37.4744324 L74.3421071,37.4744324 L74.3421071,22.6510055 L77.3506019,22.6510055 L77.469456,25.0368481 C78.0032383,24.1686901 78.7068122,23.5032438 79.5812389,23.0436932 C80.4556656,22.5841425 81.4807824,22.3548978 82.6565891,22.3548978 C84.574173,22.3548978 86.0810733,22.9386227 87.1772903,24.1028884 C88.2735073,25.2703381 88.8232076,26.8814186 88.8232076,28.9361301 L88.8232076,37.4744324 Z M91.8911294,37.474114 L95.5374039,37.474114 L95.5374039,22.6506871 L91.8911294,22.6506871 L91.8911294,37.474114 Z M93.7142667,18.7227496 C93.2006471,18.7227496 92.7687397,18.5423256 92.4185446,18.1825388 C92.0672882,17.8216908 91.8921906,17.3844278 91.8921906,16.8696886 C91.8921906,16.3666239 92.0672882,15.9336062 92.4185446,15.5738195 C92.7687397,15.2129714 93.2006471,15.0325474 93.7142667,15.0325474 C94.237437,15.0325474 94.6788952,15.2129714 95.0333351,15.5738195 C95.3888363,15.9336062 95.5671174,16.3666239 95.5671174,16.8696886 C95.5671174,17.3844278 95.3888363,17.8216908 95.0333351,18.1825388 C94.6788952,18.5423256 94.237437,18.7227496 93.7142667,18.7227496 L93.7142667,18.7227496 Z M106.891474,34.4801363 C107.72133,34.4801363 108.460985,34.2890991 109.108315,33.9091473 C109.754585,33.5291955 110.258653,33.0049044 110.619461,32.3373355 C110.980268,31.6718892 111.160671,30.9077403 111.160671,30.0480728 C111.160671,29.1884053 110.978145,28.4253178 110.612032,27.7577488 C110.245919,27.0901799 109.742911,26.5669501 109.100887,26.1869983 C108.458863,25.8059852 107.72133,25.614948 106.891474,25.614948 C106.111494,25.614948 105.404736,25.7911268 104.772263,26.142423 C104.139789,26.4937192 103.631475,26.9723736 103.245199,27.5794474 C102.859985,28.1875825 102.632888,28.8827458 102.563911,29.6628144 L102.563911,30.4779065 C102.632888,31.2590365 102.857862,31.9499545 103.238832,32.5538443 C103.618741,33.1556116 104.125993,33.627898 104.757406,33.9696424 C105.389879,34.3092641 106.101943,34.4801363 106.891474,34.4801363 L106.891474,34.4801363 Z M102.563911,44.8863582 L98.9176362,44.8863582 L98.9176362,22.6506871 L102.135187,22.6506871 L102.312407,24.7266249 C102.963982,23.9847637 103.749268,23.4042228 104.668265,22.9850023 C105.587262,22.5636591 106.591155,22.3545794 107.677821,22.3545794 C109.060561,22.3545794 110.298979,22.6910172 111.38989,23.3617701 C112.482923,24.0346457 113.341432,24.950563 113.969661,26.1116448 C114.596829,27.2737878 114.910943,28.589822 114.910943,30.0629313 C114.910943,31.5360405 114.596829,32.8520747 113.969661,34.0131564 C113.341432,35.1742382 112.482923,36.0912168 111.38989,36.7619697 C110.298979,37.4348453 109.060561,37.7712831 107.677821,37.7712831 C106.659072,37.7712831 105.716728,37.5887364 104.846546,37.2225817 C103.977426,36.856427 103.216547,36.3427492 102.563911,35.6804868 L102.563911,44.8863582 Z M125.211668,34.4801363 C126.041525,34.4801363 126.781179,34.2890991 127.42851,33.9091473 C128.074779,33.5291955 128.578848,33.0049044 128.939655,32.3373355 C129.300462,31.6718892 129.480866,30.9077403 129.480866,30.0480728 C129.480866,29.1884053 129.29834,28.4253178 128.932227,27.7577488 C128.566114,27.0901799 128.063106,26.5669501 127.421082,26.1869983 C126.779057,25.8059852 126.041525,25.614948 125.211668,25.614948 C124.431688,25.614948 123.724931,25.7911268 123.092457,26.142423 C122.459983,26.4937192 121.95167,26.9723736 121.565394,27.5794474 C121.180179,28.1875825 120.953083,28.8827458 120.884105,29.6628144 L120.884105,30.4779065 C120.953083,31.2590365 121.178057,31.9499545 121.559027,32.5538443 C121.938935,33.1556116 122.446188,33.627898 123.0776,33.9696424 C123.710074,34.3092641 124.422138,34.4801363 125.211668,34.4801363 L125.211668,34.4801363 Z M120.884105,44.8863582 L117.237831,44.8863582 L117.237831,22.6506871 L120.455381,22.6506871 L120.632601,24.7266249 C121.284177,23.9847637 122.069463,23.4042228 122.98846,22.9850023 C123.907457,22.5636591 124.91135,22.3545794 125.998016,22.3545794 C127.380756,22.3545794 128.619173,22.6910172 129.710084,23.3617701 C130.803118,24.0346457 131.661627,24.950563 132.289855,26.1116448 C132.917023,27.2737878 133.231138,28.589822 133.231138,30.0629313 C133.231138,31.5360405 132.917023,32.8520747 132.289855,34.0131564 C131.661627,35.1742382 130.803118,36.0912168 129.710084,36.7619697 C128.619173,37.4348453 127.380756,37.7712831 125.998016,37.7712831 C124.979266,37.7712831 124.036923,37.5887364 123.166741,37.2225817 C122.29762,36.856427 121.536742,36.3427492 120.884105,35.6804868 L120.884105,44.8863582 Z M138.329449,29.1735469 L146.511281,29.1735469 C146.432752,28.432747 146.207779,27.7842818 145.836359,27.2313351 C145.467063,26.6773272 144.98634,26.2453708 144.399498,25.9344047 C143.811595,25.6223772 143.15153,25.4674248 142.420365,25.4674248 C141.679649,25.4674248 141.017462,25.6255612 140.433803,25.9418339 C139.852267,26.2581066 139.37685,26.6953696 139.011799,27.2536228 C138.645685,27.811876 138.418589,28.4518507 138.329449,29.1735469 L138.329449,29.1735469 Z M149.001911,35.7547791 C147.153305,37.0994688 145.132785,37.7712831 142.93929,37.7712831 C141.348555,37.7712831 139.920184,37.4242321 138.656297,36.7333142 C137.390289,36.0423962 136.390641,35.0957007 135.65417,33.8942888 C134.917699,32.6939383 134.549463,31.3428806 134.549463,29.8400545 C134.549463,28.4072754 134.88374,27.127326 135.551234,26.0012677 C136.217666,24.8741481 137.131357,23.9847637 138.293368,23.3331145 C139.454318,22.680404 140.765958,22.3545794 142.228288,22.3545794 C143.748984,22.3545794 145.086093,22.7133049 146.237492,23.4296945 C147.38783,24.146084 148.285603,25.1384163 148.926566,26.4088138 C149.569652,27.6792113 149.891195,29.1533818 149.891195,30.833448 L149.891195,31.3078571 L138.478016,31.3078571 C138.656297,31.9807327 138.970412,32.5729481 139.419298,33.0876872 C139.868185,33.6003038 140.429558,34.0014819 141.101296,34.2869764 C141.773034,34.5745936 142.529668,34.7178715 143.369075,34.7178715 C144.95026,34.7178715 146.41259,34.2031323 147.757127,33.1757766 L149.001911,35.7547791 Z M161.541127,37.0888557 C160.454461,37.544161 159.401753,37.7712831 158.384064,37.7712831 C157.347274,37.7712831 156.434645,37.5494676 155.649358,37.1037141 C154.864072,36.6590219 154.251761,36.0392123 153.811364,35.2442852 C153.372029,34.4482968 153.152361,33.5217662 153.152361,32.4646936 L153.152361,25.912117 L150.557733,25.912117 L150.557733,22.6506871 L153.344438,22.6506871 L153.344438,18.9445651 L156.797574,18.9445651 L156.797574,22.6506871 L161.022201,22.6506871 L161.022201,25.912117 L156.797574,25.912117 L156.797574,31.7971247 C156.797574,32.6376884 157.027854,33.2999508 157.487352,33.7839118 C157.946851,34.2678727 158.52202,34.5098532 159.214982,34.5098532 C159.827293,34.5098532 160.434298,34.3230612 161.037058,33.9462934 L161.541127,37.0888557 Z M162.624079,36.1996835 L163.453935,33.0274044 C163.779723,33.353229 164.1851,33.650398 164.669006,33.9167888 C165.153973,34.1842409 165.669715,34.3943818 166.218355,34.5461503 C166.765932,34.7000414 167.301837,34.7764562 167.826069,34.7764562 C168.52752,34.7764562 169.091016,34.6299944 169.515495,34.3391933 C169.941035,34.0483922 170.153275,33.6641951 170.153275,33.1908473 C170.153275,32.8151408 170.02487,32.502052 169.766999,32.248397 C169.510189,31.9968647 169.174851,31.7750493 168.759922,31.5818894 C168.344994,31.3897909 167.890802,31.1987537 167.396284,31.0109004 C166.744708,30.7742265 166.082521,30.4897933 165.410783,30.1597234 C164.737984,29.8285923 164.177672,29.3881453 163.727724,28.839444 C163.277776,28.291804 163.053864,27.5626786 163.053864,26.6531291 C163.053864,25.7743579 163.277776,25.013393 163.727724,24.3702344 C164.177672,23.7281371 164.808023,23.2314403 165.617717,22.8812054 C166.428472,22.5299092 167.371876,22.3547917 168.448992,22.3547917 C170.147969,22.3547917 171.843762,22.7793189 173.532127,23.6294345 L172.480481,26.6244736 C172.163183,26.3867384 171.779029,26.1691682 171.323775,25.9717631 C170.869583,25.7743579 170.404778,25.6151603 169.931484,25.497354 C169.456068,25.3784864 169.026283,25.3190526 168.641068,25.3190526 C168.078634,25.3190526 167.628686,25.4432268 167.292286,25.6905138 C166.956948,25.9367396 166.789279,26.2636255 166.789279,26.6690489 C166.789279,26.9449916 166.882664,27.1944013 167.069435,27.417278 C167.257267,27.6401548 167.550157,27.854541 167.944923,28.061498 C168.340749,28.268455 168.849063,28.5019449 169.470925,28.7577225 C170.143724,29.0145614 170.817584,29.3149144 171.494628,29.6555974 C172.171672,29.9962805 172.739413,30.4462793 173.198911,31.0034712 C173.65841,31.5627857 173.887629,32.3014629 173.887629,33.2195029 C173.887629,34.1301137 173.643553,34.9250408 173.154341,35.6064068 C172.665129,36.2888342 171.98384,36.8194932 171.109414,37.199445 C170.234987,37.5804581 169.214115,37.770434 168.047859,37.770434 C166.111174,37.770434 164.303954,37.2472043 162.624079,36.1996835 M198.952476,20.41258 C198.251024,19.7110489 197.413739,19.1729607 196.440621,18.7972542 C195.466442,18.4215476 194.431775,18.2336944 193.335558,18.2336944 C192.218117,18.2336944 191.198306,18.4268542 190.274003,18.8121126 C189.350761,19.1963097 188.552741,19.748195 187.879942,20.4645846 C187.209265,21.1820354 186.689278,22.0310898 186.325287,23.0138701 C185.959174,23.9977118 185.775587,25.0866239 185.775587,26.2827292 C185.775587,27.4883863 185.961297,28.5932182 186.331654,29.5951023 C186.702012,30.599109 187.226244,31.4662058 187.903288,32.1974538 C188.580332,32.9287018 189.382597,33.4922616 190.311145,33.8870719 C191.239693,34.2818821 192.262687,34.4803486 193.379067,34.4803486 C194.34794,34.4803486 195.236162,34.3296414 196.047978,34.0282271 C196.856611,33.7268129 197.570797,33.2927338 198.188414,32.7238675 C198.806031,32.1550011 199.313283,31.4715124 199.708048,30.6702173 C200.103875,29.8699837 200.36493,28.9805993 200.493335,28.0020642 L193.468207,28.0020642 L193.468207,24.9783695 L203.947532,24.9783695 L204.05153,26.4599693 C204.05153,28.1506487 203.792597,29.6948662 203.272611,31.0926219 C202.753685,32.4914388 202.015092,33.7013412 201.05683,34.7244517 C200.098569,35.7475621 198.962027,36.53506 197.648264,37.0890679 C196.33344,37.6420145 194.881722,37.9190185 193.290987,37.9190185 C191.650376,37.9190185 190.130741,37.6282174 188.733144,37.0444926 C187.334486,36.461829 186.114109,35.6488595 185.072013,34.6066454 C184.028856,33.5644312 183.219162,32.3407317 182.641871,30.9376695 C182.063518,29.5346072 181.774873,28.0073708 181.774873,26.3570215 C181.774873,24.7172853 182.063518,23.1921715 182.641871,21.7838027 C183.219162,20.3754339 184.024611,19.1485504 185.057156,18.0999683 C186.089701,17.0535089 187.304772,16.2394781 188.703431,15.6610598 C190.101028,15.0837029 191.616418,14.7950244 193.246417,14.7950244 C194.796827,14.7950244 196.281442,15.0614152 197.699202,15.5952581 C199.116961,16.129101 200.385092,16.8953725 201.501472,17.8930113 L198.952476,20.41258 Z M220.711162,37.4744324 L217.702668,37.4744324 L217.584875,35.0875285 C217.051092,35.9567479 216.349641,36.6221942 215.479459,37.0817448 C214.610338,37.5402342 213.582038,37.7705401 212.39668,37.7705401 C210.489708,37.7705401 208.98493,37.185754 207.883407,36.014059 C206.781885,34.8434254 206.230062,33.2302222 206.230062,31.1744495 L206.230062,22.6510055 L209.876336,22.6510055 L209.876336,30.4771636 C209.876336,31.7125376 210.190451,32.6889501 210.81868,33.4053397 C211.445847,34.1217292 212.296928,34.4804547 213.375104,34.4804547 C214.491484,34.4804547 215.385012,34.0994416 216.05675,33.339538 C216.72955,32.578573 217.064888,31.5650145 217.064888,30.2999235 L217.064888,22.6510055 L220.711162,22.6510055 L220.711162,37.4744324 Z M227.693948,37.4744324 L224.046612,37.4744324 L224.046612,22.6510055 L227.219593,22.6510055 L227.353303,25.3488756 C227.865862,24.4011187 228.559885,23.6635028 229.435373,23.1402731 C230.3098,22.6170434 231.314754,22.3548978 232.451296,22.3548978 C232.748431,22.3548978 233.051934,22.3740016 233.362865,22.4143316 C233.673795,22.4536004 233.982604,22.5119729 234.28929,22.592633 L233.844648,25.8827185 C233.232337,25.7044171 232.639128,25.6152664 232.066081,25.6152664 C231.196961,25.6152664 230.432898,25.8190394 229.776017,26.2234015 C229.119136,26.628825 228.606578,27.1902621 228.242587,27.9055904 C227.876474,28.62198 227.693948,29.4551145 227.693948,30.4039327 L227.693948,37.4744324 Z M249.999788,37.4744324 L246.991293,37.4744324 L246.8735,35.0875285 C246.339718,35.9567479 245.638266,36.6221942 244.768084,37.0817448 C243.898964,37.5402342 242.870663,37.7705401 241.685306,37.7705401 C239.778334,37.7705401 238.273556,37.185754 237.172033,36.014059 C236.07051,34.8434254 235.518687,33.2302222 235.518687,31.1744495 L235.518687,22.6510055 L239.164962,22.6510055 L239.164962,30.4771636 C239.164962,31.7125376 239.479076,32.6889501 240.107305,33.4053397 C240.734473,34.1217292 241.585553,34.4804547 242.66373,34.4804547 C243.780109,34.4804547 244.673638,34.0994416 245.345376,33.339538 C246.018175,32.578573 246.353513,31.5650145 246.353513,30.2999235 L246.353513,22.6510055 L249.999788,22.6510055 L249.999788,37.4744324 Z" id="Combined-Shape" fill="#000000"></path>
            <path d="M20.863836,17.2035139 L13.1771596,17.2035139 L13.1771596,20.863836 L20.863836,20.863836 L20.863836,17.2035139 Z M25.988287,41.3616398 L25.988287,56.7349927 L22.6939971,56.7349927 L22.6939971,41.3616398 L25.988287,41.3616398 Z M30.3196073,34.77306 C31.211609,34.7788678 32.0660558,35.1484195 32.6915931,35.7981223 C33.2516977,36.3772741 33.5930447,37.137355 33.6619848,37.9448785 L33.6749634,38.2496629 L33.6749634,52.7086384 L30.475798,52.7086384 L30.475798,38.2496629 C30.475798,38.2011876 30.4577046,38.1560872 30.4219206,38.1190805 C30.4006267,38.0969642 30.3737363,38.0810318 30.3475385,38.072789 L30.3095473,38.0663804 L18.7505609,38.0663804 C18.7035517,38.0663804 18.6592467,38.0852856 18.6233023,38.1222823 C18.6016934,38.1444291 18.5863257,38.1720813 18.5784815,38.2024415 L18.5725183,38.2496629 L18.5725183,52.7086384 L15.3733529,52.7086384 L15.3733529,38.2496629 C15.3733529,37.3260075 15.7301252,36.4402774 16.3636503,35.7909856 C16.9264952,35.2115756 17.6669123,34.8579409 18.4536284,34.7865087 L18.7505609,34.77306 L30.3196073,34.77306 Z M19.1165931,9.88286969 L18.8196606,9.86942104 C18.0329445,9.79798877 17.2925274,9.44435414 16.7296825,8.86494409 C16.0961574,8.21565233 15.7393851,7.32992227 15.7393851,6.40626679 L15.7393851,6.40626679 L15.7393851,4.02635432 L18.9385505,4.02635432 L18.9385505,6.40626679 L18.9445137,6.45348825 C18.9523579,6.48384838 18.9677256,6.51150058 18.9893345,6.53364745 C19.0252789,6.5706441 19.0695839,6.58954936 19.1165931,6.58954936 L19.1165931,6.58954936 L23.0591596,6.589 L23.0600293,0 L26.3543192,0 L26.3541596,6.589 L30.6755795,6.58954936 L30.7135707,6.58314068 C30.7397685,6.57489791 30.7666589,6.5589655 30.7879528,6.53684926 C30.8237368,6.49984255 30.8418302,6.45474214 30.8418302,6.40626679 L30.8418302,6.40626679 L30.8418302,4.02635432 L34.0409956,4.02635432 L34.0409956,6.40626679 L34.028017,6.71105124 C33.9590769,7.51857469 33.6177299,8.27865561 33.0576253,8.8578074 C32.432088,9.50751026 31.5776412,9.87706194 30.6856395,9.88286969 L30.6856395,9.88286969 L19.1165931,9.88286969 Z M27.7711896,16.8374817 L29.492205,20.4642007 L34.4070278,31.1127379 L24.1080144,31.1127379 L24.1080144,27.4860189 L28.7069165,27.4860189 L23.7920937,16.8374817 L27.7711896,16.8374817 Z M35.8711567,17.2035139 L35.8711567,20.863836 L31.9192789,20.863836 L30.3806735,17.2035139 L35.8711567,17.2035139 Z" id="Combined-Shape" fill="#000000" fill-rule="nonzero"></path>
            <path d="M46.5763903,24.6353329 C46.1330535,24.2188923 45.7907493,23.7280872 45.5705889,23.1882016 C45.3504285,22.6468288 45.2569357,22.0757102 45.2976503,21.501617 C45.2976503,21.501617 45.2976503,16.6887529 45.2976503,16.2276936 C45.2976503,14.3061174 45.4137623,12.1242659 44.3823259,10.5581516 C43.682638,9.36683386 42.6331061,8.37035087 41.3453185,7.67132549 C40.0590388,6.9737874 38.5812497,6.59750352 37.0748097,6.5885798 L36.9692533,6.65253318 L36.9692533,9.78327451 C38.2012468,9.83235502 39.3653827,10.302338 40.2173734,11.102499 C41.0753958,11.8714269 41.5564312,12.9110413 41.5549233,13.9952742 C41.5549233,15.3308589 41.6378604,21.5135153 41.6378604,21.5135153 C41.6438922,22.6200576 41.9575454,23.7072652 42.5516769,24.6784643 C43.1458085,25.6511506 43.9993071,26.4751082 45.0397912,27.0789472 C43.9993071,27.6887353 43.1458085,28.5141801 42.5516769,29.4898411 C41.9575454,30.4610402 41.6438922,31.5512223 41.6378604,32.6562773 C41.6378604,32.6562773 41.5549233,38.8389337 41.5549233,40.177493 C41.5473835,41.2587514 41.0678561,42.2968784 40.2173734,43.0717555 C39.3653827,43.8674546 38.2012468,44.3404122 36.9692533,44.3880054 L36.9692533,47.520234 L37.0748097,47.5841874 C38.5812497,47.5722891 40.0575309,47.1960052 41.3438106,46.4954926 C42.6300902,45.7979545 43.68113,44.7999842 44.3823259,43.611641 C45.4137623,42.047014 45.3564603,39.8636752 45.2976503,37.942099 C45.2976503,37.4840143 45.2976503,32.6666883 45.2976503,32.6666883 C45.2629675,32.0955697 45.3579682,31.5274257 45.5781287,30.9845656 C45.7982891,30.4476546 46.1375774,29.9553622 46.5763903,29.5344597 C47.309253,28.8160996 48.32561,28.374375 49.4143485,28.3044725 L49.4143485,25.8682947 C48.3271179,25.7954176 47.3107609,25.3566676 46.5763903,24.6353329 L46.5763903,24.6353329 Z M2.83637306,24.4743607 C3.27922684,24.0643073 3.62115817,23.5752255 3.83957245,23.0414106 C4.05949304,22.5061047 4.15288397,21.9394855 4.11372003,21.3698841 C4.11372003,21.3698841 4.11372003,16.5983544 4.11372003,16.1420769 C4.05497412,14.2379383 3.99622821,12.0728567 5.0265411,10.5206185 C5.72697311,9.3441382 6.77536166,8.35702799 8.06174647,7.66217398 C9.34662497,6.97030217 10.821298,6.59901752 12.3276033,6.5885798 L12.4450952,6.64971502 L12.4450952,9.75568263 C11.2084184,9.80339793 10.0410318,10.2686221 9.1869566,11.0618889 C8.32986883,11.8238425 7.85086372,12.8527036 7.85086372,13.9277889 C7.85086372,15.2548706 7.78006736,21.3803219 7.78006736,21.3803219 C7.76952322,22.4777737 7.45169279,23.552859 6.85670216,24.5176026 C6.26171152,25.4793641 5.40763637,26.2994708 4.37129825,26.8988942 C5.40914267,27.5012998 6.26321783,28.3214065 6.85820846,29.2876412 C7.45319909,30.2508938 7.76952322,31.3289613 7.78006736,32.4264131 C7.78006736,32.4264131 7.85086372,38.5548466 7.85086372,39.8804372 C7.85839524,40.9510492 8.33740036,41.9814014 9.1869566,42.7478283 C10.0410318,43.5381129 11.2084184,44.0078104 12.4450952,44.0510524 L12.4450952,47.15702 L12.3276033,47.2181552 C10.821298,47.2062264 9.34813128,46.8334506 8.06325278,46.1415788 C6.77837427,45.4511981 5.72847941,44.4625968 5.0265411,43.2846254 C3.99622821,41.7323871 4.05497412,39.5702877 4.11372003,37.663167 C4.11372003,37.2083805 4.11372003,32.4368508 4.11372003,32.4368508 C4.14685875,31.8702317 4.05196151,31.3021214 3.83204092,30.7683066 C3.61362664,30.2359828 3.27470793,29.746901 2.83637306,29.3323743 C2.10280233,28.6166449 1.08755249,28.1797517 0,28.111161 L0,25.6985562 C1.08755249,25.6254922 2.10129603,25.188599 2.83637306,24.4743607 L2.83637306,24.4743607 Z" id="Combined-Shape" fill="url(#linearGradient-1)" fill-rule="nonzero"></path>
        </g>
    </g>
</svg>